<svg id="canvas" height="auto" xmlns="http://www.w3.org/2000/svg" version="1.1" xmlns:xlink="http://www.w3.org/1999/xlink" viewBox="0 0 900 512" width="auto" style="width: auto; height: auto;"><rect width="900" height="512" fill="#e4f3fdff"/><path d="M99.58155246092315 290.1929130171952C64.61406972107972 311.03336336045516 24.46614694666181 321.20038931470583 -17.372872675233737 325.17176733492147C-59.21189229712928 329.1431453551371 -111.86022585537083 331.55157660306475 -151.45256527045026 314.02118113848906C-191.0449046855297 296.49078567391336 -223.2739808841776 252.50125849576364 -254.9269091657103 219.9893945474671C-286.579837447243 187.47753059917056 -326.07457666764697 153.41873347565945 -341.3701349596465 118.94999744870995C-356.6656932516461 84.48126142176045 -347.0402283391346 54.60999559505882 -346.7002589177077 13.176978385770099C-346.36028949628076 -28.256038823518622 -356.4812179890896 -88.10230606637009 -339.33031843108495 -129.64810580702246C-322.1794188730803 -171.1939055476748 -276.845073847452 -202.35791547431913 -243.79486156967974 -236.097820058144C-210.74464929190745 -269.83772464196886 -179.81691111319333 -313.10907194316803 -141.02904476445116 -332.0875333099718C-102.24117841570899 -351.0659946767755 -55.47665897391249 -349.83436247827547 -11.067663477226745 -349.96858825896663C33.341332019459 -350.1028140396578 93.00857509768383 -350.55326847513004 125.42492821566321 -332.89288799411884C157.84128133364266 -315.23250751310763 158.65576920847332 -273.8044608388868 183.4304552306496 -244.00630537289925C208.2051412528259 -214.20814990691167 248.0210420004471 -195.29378031382242 274.0730443487213 -154.10395519819335C300.12504669699547 -112.91413008256427 330.26029248203577 -46.23700215558631 339.74246932029496 3.132645320875156C349.22464615855415 52.50229279733662 355.5178463043543 109.28119300149439 330.9661053782763 142.11392966057554C306.41436445219836 174.94666631965674 230.99611591671908 175.4492347159255 192.43202376382692 200.1290652753621C153.86793161093476 224.8088958347987 134.54903520076658 269.3524626739353 99.58155246092315 290.1929130171952C64.61406972107972 311.03336336045516 24.46614694666181 321.20038931470583 -17.372872675233737 325.17176733492147 " fill="#33ead4ff"/><path d="M1024.6097589838835 931.5551157102295C982.8946333881125 941.4652274549737 915.142428530472 900.3811685386393 867.8742068280311 893.4561734355134C820.6059851255902 886.5311783323875 778.5725397716635 905.0948434674212 741.0004287692385 890.0051450914743C703.4283177668136 874.9154467155274 672.3854292609117 833.539044944807 642.4415408134815 802.9179831798317C612.4976523660514 772.2969214148565 576.5934075835335 737.9166110828801 561.3370980846579 706.278774501623C546.0807885857823 674.6409379203661 550.4914162511366 651.6421647290589 550.9036838202285 613.0909636922897C551.3159513893203 574.5397626555206 546.4473355609945 515.3343232274051 563.8107034992092 474.97156828100833C581.1740714374241 434.60881333461157 622.1233732836928 403.4194904446069 655.0838914495171 370.9144340139092C688.0444096153414 338.40937758321155 724.6526124320798 296.96951928327996 761.5738124941549 279.9412296968224C798.4950125562301 262.91294011036484 835.7353387345906 269.0566665340498 876.6110918219681 268.7446964951637C917.4868449093456 268.4327264562776 973.9461727407279 261.37475090183693 1006.8283310184197 278.0694094635058C1039.7104892961115 294.76406802517465 1047.417791727019 339.56981192908404 1073.9040414881188 368.91264786517695C1100.3902912492185 398.2554838012698 1151.8767847865158 419.4306903113453 1165.7458295850183 454.126425080063C1179.6148743835206 488.82215984878064 1157.835455447372 535.8700684746188 1157.1183102791329 577.087056477483C1156.4011651108938 618.3040444803471 1167.9351835549965 658.6102786823203 1161.4429585755838 701.4283530972479C1154.9507335961712 744.2464275121754 1140.9704936679402 795.6410425315514 1118.1649604026568 833.9955029670483C1095.3594271373734 872.3499634025452 1066.3248845796543 921.6450039654853 1024.6097589838835 931.5551157102295C982.8946333881125 941.4652274549737 915.142428530472 900.3811685386393 867.8742068280311 893.4561734355134 " fill="#33ead4ff" transform="matrix(-1,1.2246467991473532e-16,-1.2246467991473532e-16,-1,1720.35546875,1200.089111328125)"/></svg>